<?xml version="1.0" encoding="UTF-8" standalone="no"?>
<!-- Created with Inkscape (http://www.inkscape.org/) -->

<svg
   width="720"
   height="255.99998"
   viewBox="0 0 190.5 67.733329"
   version="1.1"
   id="swgtbanner"
   xml:space="preserve"
   xmlns:inkscape="http://www.inkscape.org/namespaces/inkscape"
   xmlns:sodipodi="http://sodipodi.sourceforge.net/DTD/sodipodi-0.dtd"
   xmlns="http://www.w3.org/2000/svg"
   xmlns:svg="http://www.w3.org/2000/svg"><sodipodi:namedview
     id="namedview1"
     pagecolor="#ffffff"
     bordercolor="#000000"
     borderopacity="0.25"
     inkscape:showpageshadow="2"
     inkscape:pageopacity="0.0"
     inkscape:pagecheckerboard="0"
     inkscape:deskcolor="#d1d1d1"
     inkscape:document-units="mm" /><defs
     id="defs1" /><g
     inkscape:label="Layer 1"
     inkscape:groupmode="layer"
     id="layer1"><g
       id="g2"
       transform="matrix(1.9495471,0,0,2.5359592,72.676511,-0.25666803)"><text
         xml:space="preserve"
         style="font-style:normal;font-variant:normal;font-weight:normal;font-stretch:normal;font-size:12.7px;font-family:Parchment;-inkscape-font-specification:'Parchment, Normal';font-variant-ligatures:normal;font-variant-caps:normal;font-variant-numeric:normal;font-variant-east-asian:normal;white-space:pre;inline-size:293.041;fill:#000000;fill-opacity:1;stroke-width:14.1111;stroke-dasharray:none"
         x="33.928387"
         y="88.872124"
         id="text1"
         transform="translate(-8.3839786,-80.047443)"><tspan
           x="33.928387"
           y="88.872124"
           id="tspan3">Wizard</tspan></text><text
         xml:space="preserve"
         style="font-style:normal;font-variant:normal;font-weight:normal;font-stretch:normal;font-size:12.7px;font-family:Parchment;-inkscape-font-specification:'Parchment, Normal';font-variant-ligatures:normal;font-variant-caps:normal;font-variant-numeric:normal;font-variant-east-asian:normal;white-space:pre;inline-size:293.041;fill:#000000;fill-opacity:1;stroke-width:14.1111;stroke-dasharray:none"
         x="33.928387"
         y="88.872124"
         id="text1-0"
         transform="translate(-33.762028,-66.567474)"><tspan
           x="33.928387"
           y="88.872124"
           id="tspan4">Technology</tspan></text><text
         xml:space="preserve"
         style="font-style:normal;font-variant:normal;font-weight:normal;font-stretch:normal;font-size:12.7px;font-family:Parchment;-inkscape-font-specification:'Parchment, Normal';font-variant-ligatures:normal;font-variant-caps:normal;font-variant-numeric:normal;font-variant-east-asian:normal;white-space:pre;inline-size:293.041;display:inline;fill:#000000;fill-opacity:1;stroke-width:14.1111;stroke-dasharray:none"
         x="33.928387"
         y="88.872124"
         id="text1-2"
         transform="translate(-33.41031,-79.10581)"><tspan
           x="33.928387"
           y="88.872124"
           id="tspan5">Shadow </tspan></text><text
         xml:space="preserve"
         style="font-style:normal;font-variant:normal;font-weight:normal;font-stretch:normal;font-size:12.7px;font-family:Parchment;-inkscape-font-specification:'Parchment, Normal';font-variant-ligatures:normal;font-variant-caps:normal;font-variant-numeric:normal;font-variant-east-asian:normal;white-space:pre;inline-size:293.041;display:inline;fill:#000000;fill-opacity:1;stroke-width:14.1111;stroke-dasharray:none"
         x="33.928387"
         y="88.872124"
         id="text1-23"
         transform="translate(-2.0014426,-66.336884)"><tspan
           x="33.928387"
           y="88.872124"
           id="tspan6">Group</tspan></text></g><g
       id="g3"
       transform="matrix(0.49522916,0,0,0.54517733,13.023674,18.666128)"><g
         data-name="Layer 24"
         id="g1"
         transform="matrix(1.9495471,0,0,2.5359592,-9.6677039,-50.137465)"><path
           d="m 37.599,47.98644 a 25.74354,25.74354 0 0 1 -13,3.52654 H 18.51591 A 19.20235,19.20235 0 0 1 5.527,46.46944 h -4.7e-4 a 2.716,2.716 0 0 0 -1.3644,-0.65789 l 0.729,-1.01556 a 1.59463,1.59463 0 0 1 2.37794,-0.24022 16.26538,16.26538 0 0 0 4.93656,3.12484 0.756,0.756 0 0 0 0.45975,0.03735 9.42315,9.42315 0 0 0 5.9378,-4.05442 10.12962,10.12962 0 0 0 1.54728,-4.336 l 1.61187,-8.31776 a 16.80932,16.80932 0 0 1 3.48719,-7.39828 l 7.37809,-8.98088 a 5.86361,5.86361 0 0 1 5.31555,-2.09231 l 1.7981,0.2382 a 15.75065,15.75065 0 0 1 10.35611,5.90249 9.59076,9.59076 0 0 1 2.02419,5.11117 0.77711,0.77711 0 0 1 -0.52384,0.73175 0.7613,0.7613 0 0 1 -0.87911,-0.221 l -2.30477,-2.61513 a 0.77317,0.77317 0 0 0 -0.83067,-0.221 l -2.86292,0.972 a 0.77575,0.77575 0 0 0 -0.52384,0.67826 l -0.27907,3.85154 a 9.68245,9.68245 0 0 0 1.74107,6.29308 l 3.20359,4.55792 a 0.77412,0.77412 0 0 0 0.90031,0.2816 11.86977,11.86977 0 0 1 4.51164,-0.73983 l 0.12717,0.0071 a 7.47471,7.47471 0 0 1 6.60111,4.89979 6.12652,6.12652 0 0 0 -0.901,-0.67984 11.10317,11.10317 0 0 0 -11.88973,0.18571 z M 3.69008,47.30212 a 1.2475,1.2475 0 0 0 -0.29623,0.03734 1.16443,1.16443 0 0 0 -0.82713,0.755 1.18531,1.18531 0 0 0 0.51323,1.41 14.419,14.419 0 0 0 7.33924,2.00854 h 0.20792 A 20.78558,20.78558 0 0 1 4.48038,47.614 1.16384,1.16384 0 0 0 3.69008,47.30212 Z M 59.29021,42.90857 A 9.56232,9.56232 0 0 0 49.03154,43.08722 L 38.38226,49.32479 A 27.25987,27.25987 0 0 1 33.66169,51.513 h 13.56469 a 1.63106,1.63106 0 0 0 0.71207,-0.16351 l 0.27857,-0.13323 a 3.18526,3.18526 0 0 1 2.94468,0.08882 1.654,1.654 0 0 0 0.80038,0.20792 h 4.8972 a 4.64529,4.64529 0 0 0 2.43093,-8.60441 z"
           id="path1"
           inkscape:label="path1" /></g></g></g></svg>
